<?xml version="1.0" encoding="UTF-8" standalone="no"?>
<svg
   xmlns:dc="http://purl.org/dc/elements/1.1/"
   xmlns:cc="http://creativecommons.org/ns#"
   xmlns:rdf="http://www.w3.org/1999/02/22-rdf-syntax-ns#"
   xmlns:svg="http://www.w3.org/2000/svg"
   xmlns="http://www.w3.org/2000/svg"
   xmlns:sodipodi="http://sodipodi.sourceforge.net/DTD/sodipodi-0.dtd"
   xmlns:inkscape="http://www.inkscape.org/namespaces/inkscape"
   width="380pt"
   height="380pt"
   viewBox="0 0 380 380"
   version="1.1"
   id="svg3250"
   inkscape:version="0.47 r22583"
   sodipodi:docname="G1.svg">
  <metadata
     id="metadata3680">
    <rdf:RDF>
      <cc:Work
         rdf:about="">
        <dc:format>image/svg+xml</dc:format>
        <dc:type
           rdf:resource="http://purl.org/dc/dcmitype/StillImage" />
        <dc:title></dc:title>
      </cc:Work>
    </rdf:RDF>
  </metadata>
  <defs
     id="defs3678">
    <inkscape:perspective
       sodipodi:type="inkscape:persp3d"
       inkscape:vp_x="0 : 237.5 : 1"
       inkscape:vp_y="0 : 1000 : 0"
       inkscape:vp_z="475 : 237.5 : 1"
       inkscape:persp3d-origin="237.5 : 158.33333 : 1"
       id="perspective3682" />
    <inkscape:perspective
       id="perspective3693"
       inkscape:persp3d-origin="0.5 : 0.33333333 : 1"
       inkscape:vp_z="1 : 0.5 : 1"
       inkscape:vp_y="0 : 1000 : 0"
       inkscape:vp_x="0 : 0.5 : 1"
       sodipodi:type="inkscape:persp3d" />
    <inkscape:perspective
       id="perspective4509"
       inkscape:persp3d-origin="0.5 : 0.33333333 : 1"
       inkscape:vp_z="1 : 0.5 : 1"
       inkscape:vp_y="0 : 1000 : 0"
       inkscape:vp_x="0 : 0.5 : 1"
       sodipodi:type="inkscape:persp3d" />
    <inkscape:perspective
       id="perspective2882"
       inkscape:persp3d-origin="0.5 : 0.33333333 : 1"
       inkscape:vp_z="1 : 0.5 : 1"
       inkscape:vp_y="0 : 1000 : 0"
       inkscape:vp_x="0 : 0.5 : 1"
       sodipodi:type="inkscape:persp3d" />
  </defs>
  <sodipodi:namedview
     pagecolor="#f01000"
     bordercolor="#666666"
     borderopacity="1"
     objecttolerance="10"
     gridtolerance="10"
     guidetolerance="10"
     inkscape:pageopacity="0"
     inkscape:pageshadow="2"
     inkscape:window-width="1366"
     inkscape:window-height="712"
     id="namedview3676"
     showgrid="false"
     inkscape:zoom="0.35132042"
     inkscape:cx="853.17337"
     inkscape:cy="327.10398"
     inkscape:window-x="-4"
     inkscape:window-y="-4"
     inkscape:window-maximized="1"
     inkscape:current-layer="svg3250" />
  <path
     style="fill:#d05154;fill-opacity:1"
     d="M 72.457627,137.87076 C 44.551024,157.73444 -3.3941381,162.18383 0,206.125 l 0,7.1875 c 7.7,13.4625 18.1875,25.05 29.5625,35.5 1.425,-1.675 2.9125,-3.33125 4.5625,-4.78125 3.1125,-1.3 5.275,2.38125 8.0625,2.78125 1.691502,6.35848 22.496124,32.15051 43.84375,25.3125 7.925,1.6375 15.76875,3.6875 23.71875,5.25 3.375,-4.7875 9.475,-5.98125 14.9375,-6.46875 6.375,-1.2125 12.9375,-1.125 19.3125,0 0.4875,0 1.45,0.0188 1.9375,0.0312 6.1875,-3.925 13.54375,-6.80625 19.21875,-11.53125 63.4977,-55.4722 72.44546,-120.02232 50.46875,-158.0625 0.13719,-0.15425 0.26809,-0.31554 0.40625,-0.46875 2.45,-2.625 4.9875,-5.15625 7.625,-7.59375 1.9125,-1.7 4.025,-3.16875 6.0625,-4.71875 3.1375,-2.325 6.56875,-4.2125 9.90625,-6.25 l 0.65625,-0.78125 c 4.55,-1.25 8.79375,-3.54375 13.53125,-4.15625 8.4875,-2.275 17.25,-2.7625 26,-2.625 1.8375,0.2375 3.65625,0.55 5.46875,0.9375 7.4,1.1125 14.79375,2.8875 21.40625,6.5 13.725,6.1375 23.8625,19.26875 26.125,34.21875 4.8375,1.5625 10.1125,2.31875 14.125,5.71875 1.725,1.1125 3.2875,2.45625 4.75,3.90625 2.4125,2.15 4.4875,4.6875 5.875,7.625 0.2375,0.425 0.7,1.2625 0.9375,1.6875 0.925,3.9 2.66875,7.6625 2.71875,11.75 l 0.28125,1.1875 c 1.8375,3.8125 0.675,8.06875 0.0625,12.03125 -0.9375,6.3625 -2.3125,12.7125 -4.875,18.625 -1.7875,3.8125 -3.2375,7.76875 -5.125,11.53125 -3.025,5.8625 -6.575,11.45625 -9.8125,17.21875 -23.32592,10.07388 -29.39873,25.3533 -27.71875,34 -3.86477,0.0922 -9.99227,4.10404 -17.90625,32.125 -2.1625,4.3125 -3.4,9.00625 -5.3125,13.40625 -1.825,1.2625 -1.48125,3.11875 -0.84375,4.96875 -0.975,5.0375 -2.55,10.04375 -2.5,15.21875 -0.05,1.7 -0.05,3.4125 0,5.125 0.05,4.9875 0.8625,9.94375 1.375,14.90625 13.57686,11.21048 25.3106,14.17296 39.625,26.5625 4.5,6.2 6.43125,13.70625 9.40625,20.65625 13.475,5.2625 28.5375,4.6125 42.5,7.5625 3.1625,1.925 6.4875,3.08125 10.375,2.28125 22.65,5.45 43.90625,16.74375 61.46875,32.03125 9.725,9.8125 -17.10985,-9.66578 -11.43485,2.83422 33.92169,-17.79972 78.39748,-26.3646 71.68511,-79.71912 L 382.41525,36.228814 72.457627,137.87076 z M 373.3125,323.875 c 0.75968,0.79983 1.48244,1.62114 2.1875,2.46875 -0.70409,-0.84721 -1.4285,-1.66877 -2.1875,-2.46875 z m 6.9375,9.40625 c -0.0444,0.48485 -0.19247,0.88358 -0.40625,1.1875 0.22167,-0.30728 0.36109,-0.69116 0.40625,-1.1875 z m -6.125,1.34375 c 0.71821,0.28594 1.4826,0.52302 2.21875,0.65625 -0.73788,-0.1338 -1.49922,-0.36987 -2.21875,-0.65625 z m 4.84375,0.53125 c -0.35579,0.14639 -0.77312,0.23569 -1.21875,0.25 0.44448,-0.0147 0.86397,-0.10327 1.21875,-0.25 z"
     id="path3252"
     sodipodi:nodetypes="ccccccccccccccccccccccccccccccccccccccccccccccccccsccsccsccsc"
     transform="scale(0.8,0.8)" />
  <path
     d="M 409.80209,292.44074 C 462.783,-125.24974 19.477355,6.0956734 15.447137,135.79873 c 21.683202,27.77302 75.284926,10.98564 147.414463,21.26575 9.21356,1.31314 27.3143,19.7045 59.80662,43.14307 10.33519,4.60663 20.70089,10.7879 31.03747,13.42755 0.55212,0.19363 1.63819,0.55545 2.1866,0.73889 17.89578,7.07302 48.91826,13.92727 66.61509,18.84986 39.89666,10.66245 45.49424,35.89072 87.29471,59.21689 z m -145.065,-84.38559 c -0.2929,-0.5682 -0.51113,-1.13463 -0.68537,-1.70711 0.17613,0.57392 0.39256,1.13891 0.68537,1.70711 z"
     id="path3444-5"
     style="fill:#8d3435;fill-opacity:1"
     sodipodi:nodetypes="ccsccccccsc" />
  <path
     fill="#f6af8c"
     d="m 152.10381,205.57867 c -7.92171,-11.46886 -7.03797,-9.7277 -5.66628,-15.06518 0.28008,-1.08984 -3.50022,-15.83517 -2.82268,-16.28809 10.86591,-7.26369 49.6451,24.68628 65.65515,33.1846 -1.89,2.99 -4.01,5.84 -6.15,8.65 l -0.38,-1.18 c 0.85,-2.11 2.04,-4.04 3.2,-5.98 -10.65,2.24 -21.81,4.61 -32.58,1.99 -0.67,-0.13 -1.35,-0.2 -2.02,-0.22 -6.95,-1.25 -13.47619,-0.94133 -19.23619,-5.09133 z"
     id="path3504"
     sodipodi:nodetypes="cssccccccc" />
  <path
     fill="#351212"
     d=" M 220.29 63.27 C 222.29 61.18 225.58 61.28 228.23 60.56 C 234.15 61.45 240.06 62.86 245.35 65.75 C 244.09 66.41 242.71 66.62 241.31 66.50 C 238.38 83.74 232.89 100.55 230.12 117.82 C 230.63 117.96 231.66 118.23 232.18 118.36 C 228.91 119.22 225.61 119.89 222.27 120.36 C 218.09 120.19 213.92 120.17 209.75 120.29 C 205.67 119.88 201.69 118.82 197.73 117.83 C 198.85 117.40 200.00 117.02 201.16 116.69 C 202.71 116.92 204.26 117.15 205.83 117.36 C 208.59 117.73 211.43 118.10 214.25 117.91 C 212.89 116.67 211.17 115.96 209.32 116.14 C 208.98 114.75 208.63 113.35 208.24 111.97 C 211.71 112.02 215.11 110.77 217.99 108.87 C 216.55 104.73 208.67 108.69 207.94 104.17 C 213.17 103.23 218.32 101.38 223.02 98.88 C 221.11 95.76 216.16 96.45 212.91 95.95 C 211.22 93.14 215.08 91.36 215.86 88.93 C 215.60 86.86 214.65 84.72 215.59 82.67 C 217.93 76.38 219.13 69.83 220.29 63.27 Z"
     id="path3274" />
  <path
     fill="#5a1d1f"
     d="m 266.24,93.13 c 3.87,1.25 8.1,1.86 11.31,4.58 -1.79,2.7 -4.93,3.69 -7.63,5.17 -7.65,3.52 -14.03,9.51 -22.13,12.06 0.41,-1.33 0.82,-2.66 1.2,-4 0.54373,-0.44913 -5.45665,4.65288 1.6372,-1.34684 5.80181,-4.90695 11.83478,-9.730413 15.6128,-16.46316 z"
     id="path3296"
     sodipodi:nodetypes="cccccsc" />
  <path
     fill="#662427"
     d=" M 203.74 96.11 C 206.80 96.03 209.83 95.97 212.91 95.95 C 216.16 96.45 221.11 95.76 223.02 98.88 C 218.32 101.38 213.17 103.23 207.94 104.17 C 206.48 101.51 204.27 99.19 203.74 96.11 Z"
     id="path3300" />
  <path
     fill="#4e2021"
     d=" M 277.55 97.71 C 278.93 98.60 280.19 99.67 281.36 100.83 C 275.73 105.40 270.76 110.70 265.74 115.92 C 258.89 122.08 253.04 129.33 245.80 135.05 C 245.61 134.75 245.23 134.15 245.04 133.85 C 244.93 127.46 244.33 120.69 247.79 114.94 C 255.89 112.39 262.27 106.40 269.92 102.88 C 272.62 101.40 275.76 100.41 277.55 97.71 Z"
     id="path3302" />
  <path
     fill="#3f1113"
     d=" M 281.36 100.83 C 283.29 102.55 284.94 104.58 286.05 106.93 C 284.40 107.64 282.63 108.14 281.14 109.16 C 280.93 110.80 280.90 112.46 280.87 114.12 C 280.14 113.18 279.42 112.19 278.30 111.69 C 277.98 111.53 277.32 111.19 277.00 111.02 C 273.77 112.60 270.62 114.36 267.73 116.50 C 267.23 116.36 266.24 116.06 265.74 115.92 C 270.76 110.70 275.73 105.40 281.36 100.83 Z"
     id="path3304" />
  <path
     fill="#643931"
     d=" M 170.93 107.52 C 173.16 106.57 175.52 106.43 178.01 107.12 L 177.98 107.77 C 176.58 108.07 175.17 108.27 173.74 108.37 C 173.04 108.16 171.63 107.74 170.93 107.52 Z"
     id="path3310" />
  <path
     fill="#2e1010"
     d=" M 281.14 109.16 C 282.63 108.14 284.40 107.64 286.05 106.93 C 286.24 107.27 286.62 107.94 286.81 108.28 C 287.55 111.40 288.94 114.41 288.98 117.68 C 286.62 122.28 285.94 127.44 284.34 132.30 C 283.39 126.20 282.07 120.17 280.87 114.12 C 280.90 112.46 280.93 110.80 281.14 109.16 Z"
     id="path3312" />
  <path
     fill="#f7ae8c"
     d="m 166.12,109.06 c 1.4,-1.03 3.18,-1.11 4.81,-1.54 0.7,0.22 2.11,0.64 2.81,0.85 5.15,0.96 9.16,4.63 14.07,6.26 3.24,1.24 6.5,2.49 9.92,3.2 3.96,0.99 7.94,2.05 12.02,2.46 1.32,0.39 2.66,0.74 3.99,1.09 3.55,2.55 7.94,0.4 11.88,1.07 5.95,0.59 11.02,-2.61 16.38,-4.49 -1.64,5.13 -2.55,10.49 -1.91,15.91 1.59,0.96 3.31,0.58 4.95,-0.02 0.19,0.3 0.57,0.9 0.76,1.2 -4.84,4.59 2.28,9.03 6.31,10.98 1.7,3.78 0.83,8.03 -0.28,11.82 -3.28,3.35 -7.29,6.29 -9.76,10.27 1.88,1.62 4.21,1.78 7.01,0.46 7.37,2.85 2.24,11.74 -1.57,15.46 -6.99522,3.79992 -19.23574,13.56386 -35.04114,21.43242 -1.7554,7.23447 -46.14547,-6.71506 -50.41835,-2.745 -2.65,-0.93 13.88949,-19.40742 11.47949,-20.80742 -5.1,-5.09 -12.78,-6.06 -19.43,-8.09 -0.68,-0.66 -1.37,-1.3 -2.09,-1.91 0.35,1.58 0.8,3.14 1.21,4.7 7.5237,9.5469 -6.20846,19.46888 -6.95377,17.09596 -4.58692,-13.32442 -2.84984,-35.2979 -0.66315,-47.63988 0.59,-0.72 2.48088,-10.96546 3.10088,-11.67546 4.02468,10.04313 1.8611,5.49581 4.07608,0.42938 1.33,-0.36 2.69,-0.64 4.08,-0.79 6.15,1.57 12.47,2.54 18.02,5.83 0.02,-0.45 0.06,-1.35 0.08,-1.8 0.99,-2.92 2.88,-5.96 0.84,-8.91 -1.11,-6.2 6.02,0.11 9.01,-0.25 2.23,-2.01 2.42,-7.44 -0.53,-8.67 -3.44,-2 -7.1,-3.74 -11.04,-4.48 -2.84,-0.72 -5.76,-1.12 -8.54,-0.14 -0.45,0.09 -1.35,0.27 -1.8,0.36 -1.97477,-4.16673 2.08283,-4.64698 3.22,-6.92 l -4e-5,0 z"
     id="path3314"
     sodipodi:nodetypes="cccccccccccccccccccccccccccccccccccccc"
     style="fill:#f7ae8c;fill-opacity:1" />
  <path
     fill="#e29374"
     d=" M 173.74 108.37 C 175.17 108.27 176.58 108.07 177.98 107.77 C 183.42 108.16 188.58 110.09 193.86 111.33 C 198.80 113.58 203.95 115.24 209.32 116.14 C 208.17 116.59 207.00 117.00 205.83 117.36 C 204.26 117.15 202.71 116.92 201.16 116.69 C 196.63 116.78 192.32 113.60 187.81 114.63 C 182.90 113.00 178.89 109.33 173.74 108.37 Z"
     id="path3316" />
  <path
     fill="#e89675"
     d=" M 232.18 118.36 C 238.12 116.78 243.96 114.57 248.99 110.94 C 248.61 112.28 248.20 113.61 247.79 114.94 C 244.33 120.69 244.93 127.46 245.04 133.85 C 243.40 134.45 241.68 134.83 240.09 133.87 C 239.45 128.45 240.36 123.09 242.00 117.96 C 236.64 119.84 231.57 123.04 225.62 122.45 C 221.68 121.78 217.29 123.93 213.74 121.38 C 216.58 121.12 219.49 121.09 222.27 120.36 C 225.61 119.89 228.91 119.22 232.18 118.36 Z"
     id="path3320" />
  <path
     fill="#311111"
     d=" M 267.73 116.50 C 270.62 114.36 273.77 112.60 277.00 111.02 C 277.32 111.19 277.98 111.53 278.30 111.69 C 277.33 119.41 276.37 127.14 276.06 134.91 C 276.50 137.38 275.02 137.39 274.79 135.11 C 272.86 130.65 274.02 124.35 270.17 120.87 C 268.72 124.86 269.27 129.21 268.67 133.34 C 267.15 129.56 267.25 124.86 264.28 121.85 C 263.63 124.83 262.85 127.87 263.56 130.92 C 261.94 131.94 260.05 132.43 258.14 132.35 C 258.03 134.98 257.93 137.61 257.84 140.25 C 254.59 138.59 254.23 133.36 250.14 132.82 C 250.02 135.64 249.89 138.46 249.74 141.27 C 248.21 139.35 246.69 137.36 245.80 135.05 C 253.04 129.33 258.89 122.08 265.74 115.92 C 266.24 116.06 267.23 116.36 267.73 116.50 Z"
     id="path3322" />
  <path
     fill="#682427"
     d=" M 278.30 111.69 C 279.42 112.19 280.14 113.18 280.87 114.12 C 282.07 120.17 283.39 126.20 284.34 132.30 C 285.94 127.44 286.62 122.28 288.98 117.68 L 289.20 118.62 C 289.17 121.82 289.11 125.04 289.26 128.24 C 288.51 133.33 287.40 138.42 285.35 143.15 C 285.16 137.23 278.03 139.41 276.06 134.91 C 276.37 127.14 277.33 119.41 278.30 111.69 Z"
     id="path3324" />
  <path
     fill="#753b32"
     d=" M 187.81 114.63 C 192.32 113.60 196.63 116.78 201.16 116.69 C 200.00 117.02 198.85 117.40 197.73 117.83 C 194.31 117.12 191.05 115.87 187.81 114.63 Z"
     id="path3326" />
  <path
     fill="#af6557"
     d=" M 164.70 115.62 C 167.48 114.64 170.40 115.04 173.24 115.76 C 170.39 115.74 167.54 115.69 164.70 115.62 Z"
     id="path3328" />
  <path
     fill="#833936"
     d=" M 162.90 115.98 C 163.35 115.89 164.25 115.71 164.70 115.62 C 167.54 115.69 170.39 115.74 173.24 115.76 C 177.18 116.50 180.84 118.24 184.28 120.24 C 181.87 121.65 179.27 119.58 176.96 119.19 C 171.42 116.89 165.21 117.53 159.97 120.12 C 159.99 118.19 161.68 117.19 162.90 115.98 Z"
     id="path3330" />
  <path
     fill="#874b3e"
     d=" M 209.32 116.14 C 211.17 115.96 212.89 116.67 214.25 117.91 C 211.43 118.10 208.59 117.73 205.83 117.36 C 207.00 117.00 208.17 116.59 209.32 116.14 Z"
     id="path3332" />
  <path
     d="m 159.97,120.12 c 5.24,-2.59 11.45,-3.23 16.99,-0.93 2.31,0.39 4.91,2.46 7.32,1.05 3.75099,1.4703 5.51799,7.4874 0.53,8.67 -2.64186,1.52045 -9.36308,-3.42693 -9.01,0.25 -1.14,-1.75 -1.79,-4.02 -3.67,-5.15 -2.62,-1.58 -5.78,-2.76 -8.89,-1.84 -2.2,1.91 -3.5,4.56 -5.33,6.77 0.6,-2.96 1.28,-5.91 2.06,-8.82 z"
     id="path3334"
     style="fill:#f7ae8c;fill-opacity:1"
     fill="#ee9c7e"
     sodipodi:nodetypes="ccccccccc" />
  <path
     fill="#9f2427"
     d=" M 289.20 118.62 C 290.67 121.67 289.75 125.07 289.26 128.24 C 289.11 125.04 289.17 121.82 289.20 118.62 Z"
     id="path3336" />
  <path
     fill="#a96853"
     d=" M 209.75 120.29 C 213.92 120.17 218.09 120.19 222.27 120.36 C 219.49 121.09 216.58 121.12 213.74 121.38 C 212.41 121.03 211.07 120.68 209.75 120.29 Z"
     id="path3338" />
  <path
     fill="#5f2123"
     d=" M 270.17 120.87 C 274.02 124.35 272.86 130.65 274.79 135.11 C 275.02 137.39 276.50 137.38 276.06 134.91 C 278.03 139.41 285.16 137.23 285.35 143.15 C 283.92 146.20 282.77 149.36 281.26 152.37 C 275.36 148.44 267.18 148.17 262.41 142.67 C 260.86 141.90 259.26 141.23 257.84 140.25 C 257.93 137.61 258.03 134.98 258.14 132.35 C 260.05 132.43 261.94 131.94 263.56 130.92 C 262.85 127.87 263.63 124.83 264.28 121.85 C 267.25 124.86 267.15 129.56 268.67 133.34 C 269.27 129.21 268.72 124.86 270.17 120.87 Z"
     id="path3340" />
  <path
     style="fill:#e28976;fill-opacity:1"
     d="M 206.96875 152.3125 C 206.00059 152.30508 205.03438 152.43125 204.0625 152.71875 C 201.3125 155.10625 199.6625 158.425 197.375 161.1875 C 196.5125 162.25 195.63125 163.26875 194.71875 164.28125 C 197.98125 165.20625 201.325 166.1625 204.75 166.125 C 210 166.675 214.2125 170.09375 218.6875 172.59375 C 219.925 168.94375 222.3 165.125 219.75 161.4375 C 218.325 159.25 217.50625 156.4125 215.15625 155 C 212.7 153.51875 209.87324 152.33477 206.96875 152.3125 z "
     transform="scale(0.8,0.8)"
     id="path3342" />
  <path
     fill="#a83332"
     d=" M 152.78 134.83 C 153.02 133.49 153.23 132.14 153.62 130.83 C 154.66 131.93 155.76 132.98 156.86 134.04 C 155.47 134.19 154.11 134.47 152.78 134.83 Z"
     id="path3346" />
  <path
     fill="#2f201d"
     d=" M 153.62 130.83 C 154.16 130.98 155.24 131.28 155.78 131.43 C 158.39 132.17 161.05 132.93 163.79 132.90 C 167.99 133.34 171.38 136.07 174.96 138.07 C 174.94 138.52 174.90 139.42 174.88 139.87 C 169.33 136.58 163.01 135.61 156.86 134.04 C 155.76 132.98 154.66 131.93 153.62 130.83 Z"
     id="path3348" />
  <path
     fill="#f09f7f"
     d=" M 197.08 135.81 C 196.71 133.27 199.73 131.97 201.72 131.22 C 204.04 133.47 207.52 133.35 210.35 134.61 C 216.97 136.64 222.52 141.07 226.14 146.91 C 223.05 147.08 219.92 141.45 217.69 146.00 C 215.90 144.31 213.66 143.24 211.30 142.60 C 211.00 142.40 210.39 142.01 210.09 141.81 C 206.14 139.05 201.36 137.92 197.08 135.81 Z"
     id="path3350"
     style="fill:#f7ae8c;fill-opacity:1" />
  <path
     fill="#833937"
     d=" M 201.72 131.22 C 213.82 130.75 225.98 138.45 229.99 150.07 C 227.85 150.43 227.22 148.24 226.14 146.91 C 222.52 141.07 216.97 136.64 210.35 134.61 C 207.52 133.35 204.04 133.47 201.72 131.22 Z"
     id="path3352" />
  <path
     fill="#591c1e"
     d=" M 250.14 132.82 C 254.23 133.36 254.59 138.59 257.84 140.25 C 259.26 141.23 260.86 141.90 262.41 142.67 C 267.18 148.17 275.36 148.44 281.26 152.37 C 278.84 157.06 276.00 161.53 273.41 166.14 C 273.15 163.36 270.04 163.06 268.13 161.79 C 263.52 158.83 257.06 154.21 251.83 157.85 C 252.94 154.06 253.81 149.81 252.11 146.03 C 251.53 144.34 250.57 142.83 249.74 141.27 C 249.89 138.46 250.02 135.64 250.14 132.82 Z"
     id="path3354" />
  <path
     fill="#eb9f7d"
     d=" M 252.11 146.03 C 248.08 144.08 240.96 139.64 245.80 135.05 C 246.69 137.36 248.21 139.35 249.74 141.27 C 250.57 142.83 251.53 144.34 252.11 146.03 Z"
     id="path3356" />
  <path
     d="M 262.625 177.25 C 257.55 177.4125 252.6375 179.00625 247.75 180.21875 C 245.8 181.88125 246.46875 184.76875 245.03125 186.78125 C 255.59375 188.46875 262.5625 196.475 269.5 203.8125 C 271.8625 202.35 274.06875 200.6 275.90625 198.5 C 276.45625 197.35 277.03125 196.2 277.59375 195.0625 L 277.6875 193.75 C 277.4375 189.375 275.5375 185.3 272.125 182.5 C 269.8875 180.3875 267.075 179.05 264.125 178.25 C 263.75 178 263 177.5 262.625 177.25 z "
     transform="scale(0.8,0.8)"
     id="path3360"
     style="fill:#e28c77;fill-opacity:1" />
  <path
     fill="#231b18"
     d=" M 189.96 148.92 C 191.47 149.04 194.51 149.30 196.02 149.43 C 204.47 150.78 210.06 157.17 215.61 163.04 C 216.76 164.37 213.87 164.25 213.15 164.82 C 207.09 157.94 199.79 150.56 190.09 149.81 L 189.96 148.92 Z"
     id="path3366" />
  <path
     fill="#4c1819"
     d="m 251.83,157.85 c 5.23,-3.64 11.69,0.98 16.3,3.94 1.91,1.27 5.02,1.57 5.28,4.35 -2.85,4.23 -5.85,8.38 -8.61,12.68 -1.59,1.8 -2.92,3.8 -4.1,5.89 -15.37734,1.87892 1.71686,-1.86723 -14.39,16.35 -5.22687,3.10629 -19.13431,-4.72918 -17.71297,-6.23242 L 247.51,184.04 c 3.81,-3.72 8.94,-12.61 1.57,-15.46 -2.36,-1.16 -4.7,-1.31 -7.01,-0.46 2.47,-3.98 6.48,-6.92 9.76,-10.27 z"
     id="path3370"
     sodipodi:nodetypes="ccccccccccc" />
  <path
     fill="#ee9777"
     d=" M 168.29 159.14 C 170.80 158.13 169.30 162.51 168.19 162.79 C 166.56 162.09 166.69 159.80 168.29 159.14 Z"
     id="path3374"
     style="fill:#da8565;fill-opacity:1" />
  <path
     fill="#8d4f42"
     d=" M 242.07 168.12 C 244.38 167.27 246.72 167.42 249.08 168.58 C 246.28 169.90 243.95 169.74 242.07 168.12 Z"
     id="path3380" />
  <path
     fill="#cf364d"
     d=" M 154.10 173.83 C 160.75 175.86 168.43 176.83 173.53 181.92 C 171.40 183.35 169.00 183.65 166.33 182.84 C 165.10 181.37 164.28 179.53 162.68 178.39 C 158.84 178.97 156.49 176.09 154.10 173.83 Z"
     id="path3390" />
  <path
     fill="#ca5d5d"
     d="m 181.16284,185.98729 c 3.41903,0.8534 7.01764,1.63148 10.2528,3.02155 l 1.49436,0.97116 -0.95,0.04 c -1.82,0.06 -9.27415,0.57254 -11.09415,0.63254 -0.2,-0.57 0.49699,-4.10525 0.29699,-4.66525 z"
     id="path3456"
     sodipodi:nodetypes="cccccc" />
  <path
     fill="#2a0f10"
     d="m 143.87,192.07 c 0.23,-0.57 0.486,-4.1742 0.716,-4.7442 0.44,1.34 1.134,5.1442 1.604,6.4842 1.82365,3.93839 2.68831,6.80959 5.64,9.07 5.76,4.15 12.56,6.54 19.51,7.79 -7.1,11.54 -21.77,11.17 -33.53,9.39 -5.86,-4.13 -14.19,-1.94 -21.05,-3.3 4.95,-3.14 9.94897,-6.19578 14.79,-9.52 3.48897,-2.39578 5.68,-5.96 8.11,-9.24 3.22262,-3.39174 4.69116,-4.23683 4.21,-5.93 z"
     id="path3466"
     sodipodi:nodetypes="cccccccscc" />
  <path
     style="fill:#c1374b"
     d="m 152.01,171.92 c 2.54608,2.18118 4.83118,4.99518 8.20906,5.88443 1.02265,0.36263 2.19214,0.13836 3.17634,0.26873 1.50324,1.22493 3.36435,0.26055 4.57128,1.70696 2.37944,0.78249 3.49003,3.60411 5.56332,2.13988 2.4069,1.39891 4.79989,2.87441 7.44,3.8 7.50888,3.26571 1.47206,4.64581 -3.006,6.36008 -4.62342,1.19003 -9.51865,0.16204 -13.85222,-1.61707 -2.18361,-0.93469 -4.75775,-1.51653 -6.27591,-3.49232 -0.93465,-1.13168 -1.98825,-2.20898 -2.6825,-3.52636 -0.59834,-1.30207 -0.83459,-2.72726 -0.99466,-4.11388 -0.89648,-2.41808 -1.57152,-4.89821 -2.14871,-7.41045 z"
     id="path3388"
     sodipodi:nodetypes="cccccccccccc" />
  <path
     fill="#2b1010"
     d="m 244.9,199.96 c 0.36,0.27 1.06,0.83 1.41,1.1 -8.78873,19.28234 -15.91238,38.019 -15.24,60.88 -0.71,-0.02 -2.13,-0.06 -2.84,-0.09 -8.53,-8.5 -20.43,-13.62 -26.79,-24.23 -1.5,-3.62 -2.83,-7.55 -2.33,-11.53 1.06,-3.44 2.69,-6.68 4.01,-10.03 2.14,-2.81 4.26,-5.66 6.15,-8.65 3.94,-1.89 7.43,-4.56 11.12,-6.88 2.79775,-2.43738 4.77297,-4.03007 6.63362,-4.99863 7.72792,-4.02273 10.24318,2.71975 17.87638,4.42863 z"
     id="path3486"
     sodipodi:nodetypes="cccccccccsc" />
  <path
     fill="#efba98"
     d=" M 171.34 210.67 C 172.01 210.69 172.69 210.76 173.36 210.89 C 169.36 217.03 162.46 219.53 156.95 223.79 C 151.27 223.65 145.01 221.00 139.55 222.97 C 138.74 222.15 138.24 221.11 137.81 220.06 C 149.57 221.84 164.24 222.21 171.34 210.67 Z"
     id="path3514" />
  <path
     fill="#f0b894"
     d=" M 196.83 231.75 C 196.46 225.44 198.37 219.50 202.74 214.88 L 203.12 216.06 C 201.80 219.41 200.17 222.65 199.11 226.09 C 198.61 230.07 199.94 234.00 201.44 237.62 C 207.80 248.23 219.70 253.35 228.23 261.85 C 225.73 261.85 223.26 261.70 220.81 261.40 C 221.39 261.26 222.54 260.99 223.12 260.85 C 218.40 257.32 213.52 254.00 209.11 250.06 C 203.10 245.38 199.28 238.85 196.83 231.75 Z"
     id="path3518" />
  <path
     fill="#f09f7d"
     d="m 171.15404,210.5342 c 10.78331,2.10914 24.11382,0.69357 34.78596,-1.6342 -1.16,1.94 -2.35,3.87 -3.2,5.98 -3.53973,3.86293 -6.0846,17.1005 -5.87,20.97 -11.76613,9.11005 -27.72173,5.40644 -43.08,0.32 -1.04,-0.69 -2.12,-1.34 -3.08,-2.12 -15.23926,-8.09824 -17.02616,-13.24908 -14.38242,-13.86496 0.76161,-0.17742 4.16158,0.55752 5.07007,0.64599 5.16616,0.50305 13.45394,0.39952 14.98307,-0.52788 2.33855,-0.52055 6.5541,-1.6346 8.02786,-2.81468 2.47986,-1.98572 4.2365,-3.10302 6.74546,-6.95427 z"
     id="path3512"
     sodipodi:nodetypes="ccccccsscsc" />
  <path
     fill="#9f5f64"
     d=" M 99.76 216.72 C 104.86 215.75 110.10 215.83 115.20 216.73 C 110.05 216.87 104.90 217.19 99.76 216.72 Z"
     id="path3520" />
  <path
     fill="#fcf9f8"
     d=" M 87.79 221.90 C 90.49 218.07 95.39 217.11 99.76 216.72 C 104.90 217.19 110.05 216.87 115.20 216.73 C 115.59 216.73 116.37 216.75 116.76 216.76 C 123.62 218.12 131.95 215.93 137.81 220.06 C 138.24 221.11 138.74 222.15 139.55 222.97 C 143.20 226.72 146.79 230.57 150.71 234.05 C 151.67 234.83 152.75 235.48 153.79 236.17 C 160.29 241.58 167.51 246.06 175.17 249.63 C 174.52 249.99 173.22 250.71 172.57 251.07 C 162.86 246.55 153.75 240.50 143.24 237.91 C 142.70 237.72 141.64 237.35 141.10 237.17 C 123.92 230.23 105.62 226.73 87.79 221.90 Z"
     id="path3524" />
  <path
     fill="#f3a783"
     d="m 196.87,235.85 c -1.09,-1.47 -2.34,-3.06 -0.04,-4.1 2.45,7.1 6.27,13.63 12.28,18.31 0.81,5.71 -5.61,2.66 -9,4.02 -3.41,0.9 -7.02,0.18 -10.43,1.09 -4.9,-1.68 -9.75,-3.51 -14.51,-5.54 -7.66,-3.57 -14.88,-8.05 -21.38,-13.46 16.31805,4.89309 33.00141,7.04259 43.08,-0.32 z"
     id="path3534"
     sodipodi:nodetypes="cccccccc" />
  <path
     d="m 172.57,251.07 c 0.65,-0.36 1.95,-1.08 2.6,-1.44 4.76,2.03 9.61,3.86 14.51,5.54 10.03,3.48 20.59,5.18 31.13,6.23 2.45,0.3 4.92,0.45 7.42,0.45 0.71,0.03 2.13,0.07 2.84,0.09 3.56,2.19 6.58,5.06 9.51,8.01 101.09957,111.99533 8.09894,22.63559 -68.01,-18.88 z"
     id="path3548"
     fill="#fefdfd"
     sodipodi:nodetypes="cccccccc" />
  <path
     fill="#f6ad8a"
     d="m 209.11,250.06 c 4.41,3.94 9.29,7.26 14.01,10.79 -0.58,0.14 -1.73,0.41 -2.31,0.55 -10.54,-1.05 -21.1,-2.75 -31.13,-6.23 3.39875,-0.96623 6.3383,-3.59851 10.43,-1.09 5.12329,-6.90653 9.83001,1.62596 9,-4.02 z"
     id="path3550"
     sodipodi:nodetypes="cccccc" />
  <path
     d="M -0.50317797,194.79608 C -286.64301,707.08933 401.80396,551.92006 473.26026,392.84052 456.98406,358.77718 373.39436,379.36673 277.58975,366.7583 265.35202,365.14774 249.33293,342.59091 215.71875,313.84375 203.58125,308.19375 192.2,300.6125 179.0625,297.375 178.3875,297.1375 177.05,296.69375 176.375,296.46875 154.9,287.79375 114.92945,279.38708 92.641949,273.34958 42.174983,260.27219 46.204546,223.4054 -0.50317797,194.79608 z M 160.78125,304.21875 c 0.12187,0.69687 0.14004,1.3916 0.0937,2.09375 0.0445,-0.70391 0.0281,-1.39688 -0.0937,-2.09375 z"
     id="path3444"
     style="fill-opacity:1;fill:#8d3435"
     sodipodi:nodetypes="ccsccccccsc"
     transform="scale(0.8,0.8)" />
  <path
     style="fill:#321010"
     d="m 167.06025,87.729812 c 3.25996,-3.894181 9.03669,-11.052966 9.03669,-11.052966 7.83379,-7.91448 13.7685,-11.488428 21.95863,-13.51394 2.70782,-0.669674 7.38565,-2.022088 11.15299,-2.670689 4.76803,-0.820885 16.02397,-1.37102 19.22056,-0.134366 20.22063,7.822694 4.56631,51.806559 4.56673,55.368529 3.67814,4.49356 -35.56561,11.50811 -55.0856,-8.65657 -2.49,-0.69 -7.98104,13.68202 -10.21104,14.63202 -1.63,0.43 -0.27896,-13.72202 -1.67896,-12.69202 -6.9615,7.89456 -9.99636,35.95676 -12.78575,49.76977 -2.49,2.43 -4.78425,-12.36977 -5.48425,-14.03977 -0.19,-9.74 2.16,-19.24 4.54,-28.61 3.19,-10.26 8.7009,-21.150159 14.77,-28.399998 z"
     id="path3294"
     sodipodi:nodetypes="ccssscccccccs" />
  <path
     fill="#2a0e0f"
     d="m 241.31,66.5 c -2.1092,-3.70822 2.58565,-0.302019 4.04,-0.75 10.98,4.91 20.28763,14.614915 23.10398,25.166017 7.34246,6.152373 24.87709,18.740683 18.49709,24.010683 20.50529,27.38136 -38.52985,110.88741 -57.13866,81.3172 -0.11658,-4.52253 19.92754,-34.48688 19.91213,-33.92534 -0.15797,5.75818 -13.04929,14.63977 -11.82575,9.36582 0.63911,-2.75481 13.06822,-24.39001 10.54455,-27.67732 -0.49976,-0.65099 -5.96642,-18.07561 -6.29533,-17.45187 -12.68837,24.06248 -1.07577,-1.78542 -9.96801,-8.19519 -0.52,-0.13 -1.55,-0.4 -2.06,-0.54 2.77,-17.27 3.58592,-34.504917 11.19,-51.32 z"
     id="path3280"
     sodipodi:nodetypes="cccccssssccc" />
  <path
     sodipodi:type="arc"
     style="fill:#8d3435;fill-opacity:1;stroke-width:0;stroke-miterlimit:4;stroke-dasharray:none"
     id="path3818"
     sodipodi:cx="1045.342"
     sodipodi:cy="193.91756"
     sodipodi:rx="236.96317"
     sodipodi:ry="227.00075"
     d="m 1282.3052,193.91756 a 236.96317,227.00075 0 1 1 -473.92632,0 236.96317,227.00075 0 1 1 473.92632,0 z"
     transform="matrix(0.8,0,0,0.8,17.078426,3.4156853)"
     inkscape:export-filename="C:\ws\workspace\SilenceSign\res\drawable\girl.png"
     inkscape:export-xdpi="43"
     inkscape:export-ydpi="43" />
  <path
     style="fill:#d05154;fill-opacity:1"
     d="m 916.81671,77.890615 c 22.2081,15.80753 104.53369,-2.17076 101.83269,32.797635 l 0,5.71982 c -6.1277,10.71346 -14.4737,19.9348 -23.52589,28.25092 -1.13402,-1.33297 -2.31777,-2.65101 -3.63084,-3.80492 -2.47693,-1.03454 -4.19785,1.895 -6.41615,2.21332 -1.34609,5.06008 -17.90242,25.58539 -34.89088,20.1437 -6.30671,1.30312 -12.54877,2.93451 -18.87539,4.17795 -2.68583,-3.80989 -7.54021,-4.75988 -11.88727,-5.14783 -5.07323,-0.96491 -10.29567,-0.89528 -15.3689,0 -0.38795,0 -1.15391,0.0149 -1.54186,0.0249 -4.92402,-3.12351 -10.77812,-5.41641 -15.29429,-9.17657 -50.53151,-44.14481 -57.65214,-95.513815 -40.16306,-125.786225 -0.10918,-0.12275 -0.21335,-0.25111 -0.32329,-0.37303 -1.94972,-2.08898 -3.96906,-4.10335 -6.06798,-6.04311 -1.52197,-1.35286 -3.2031,-2.5217 -4.82454,-3.75519 -2.49683,-1.85023 -5.22742,-3.35231 -7.8834,-4.97375 l -0.52225,-0.62172 c -3.62089,-0.99475 -6.99807,-2.8201204 -10.76817,-3.3075504 -6.75436,-1.81044 -13.72756,-2.19839 -20.69082,-2.08897 -1.46228,0.189 -2.90964,0.43769 -4.35203,0.74606 -5.88892,0.88533 -11.77287,2.29788 -17.03511,5.1727004 -10.92236,4.88423 -18.98979,15.33409 -20.79028,27.23131 -3.84969,1.24344 -8.04754,1.84527 -11.24069,4.55099 -1.37275,0.88533 -2.61619,1.95468 -3.78005,3.10859 -1.91987,1.71098 -3.57115,3.73032 -4.67533,6.06798 -0.189,0.33822 -0.55706,1.0047 -0.74606,1.34292 -0.73612,3.10362 -2.12379,6.09782 -2.16358,9.35065 l -0.22382,0.94502 c -1.46229,3.03399 -0.53717,6.42111 -0.0497,9.57447 0.74606,5.06328 1.84029,10.11662 3.87953,14.82179 1.42249,3.03399 2.5764,6.18237 4.07848,9.17657 2.40729,4.665375 5.23238,9.116885 7.80879,13.702685 18.56277,8.01681 23.39552,20.17617 22.05859,27.05722 3.07558,0.0734 7.95185,3.266 14.24981,25.56509 1.72092,3.43189 2.70572,7.16718 4.22769,10.6687 1.45233,1.0047 1.17878,2.4819 0.67145,3.95414 0.77591,4.00884 2.0293,7.99282 1.98951,12.11108 0.0398,1.35287 0.0398,2.71567 0,4.07848 -0.0398,3.96906 -0.68638,7.91324 -1.09423,11.8624 -10.80447,8.92132 -20.14219,11.27886 -31.5336,21.13846 -3.5811,4.93396 -5.11799,10.90744 -7.48549,16.43825 -10.72342,4.1879 -22.71016,3.67063 -33.82153,6.01824 -2.51672,1.53192 -1.76499,16.04308 -4.85867,15.40644 15.81355,-2.95763 -29.62191,-12.82979 -1.72691,-94.58898 25.66436,-56.6156 70.88243,-51.31109 108.02719,-71.57208 l 99.42837,-22.178515 -4e-5,-4e-5 z M 721.56707,204.39376 c -0.60456,0.63652 -1.17973,1.29012 -1.74081,1.96464 0.56031,-0.67421 1.1368,-1.328 1.74081,-1.96464 z m -5.52086,7.4855 c 0.0353,0.38585 0.15316,0.70316 0.32329,0.94502 -0.17641,-0.24453 -0.28736,-0.55002 -0.32329,-0.94502 z m 4.87428,1.06936 c -0.57156,0.22756 -1.17986,0.41622 -1.76569,0.52224 0.58721,-0.10647 1.19308,-0.29433 1.76569,-0.52224 z m -3.85466,0.42277 c 0.28313,0.1165 0.61524,0.18757 0.96988,0.19895 -0.35372,-0.0117 -0.68755,-0.0822 -0.96988,-0.19895 z"
     id="path3252-1"
     sodipodi:nodetypes="cccccccccccccccccccccccccccccccccccccccccccccccccccccccccccc"
     inkscape:export-filename="C:\ws\workspace\SilenceSign\res\drawable\girl.png"
     inkscape:export-xdpi="43.060478"
     inkscape:export-ydpi="43.060478" />
  <path
     style="fill:#f6af8c"
     d="m 867.34399,151.15339 c 7.88013,-11.40866 7.00103,-9.67664 5.63654,-14.9861 -0.27861,-1.08412 3.48184,-15.75205 2.80786,-16.20259 -10.80887,-7.22556 -49.3845,24.55669 -65.3105,33.0104 1.88008,2.97431 3.98895,5.80935 6.11771,8.6046 l 0.37801,-1.17381 c -0.84554,-2.09892 -2.02929,-4.01879 -3.1832,-5.94861 10.59409,2.22824 21.69551,4.5858 32.40897,1.97956 0.66649,-0.12932 1.34292,-0.19895 2.0094,-0.21885 6.91352,-1.24344 13.40545,-0.93639 19.13521,-5.0646 z"
     id="path3504-4"
     sodipodi:nodetypes="cssccccccc"
     inkscape:export-filename="C:\ws\workspace\SilenceSign\res\drawable\girl.png"
     inkscape:export-xdpi="43.060478"
     inkscape:export-ydpi="43.060478" />
  <path
     style="fill:#351212"
     d="m 799.51574,9.5917346 c -1.98951,-2.07903 -5.26223,-1.97955 -7.89832,-2.69577 -5.88893,0.88533 -11.7679,2.28793 -17.03014,5.1627504 1.25339,0.65654 2.62615,0.86544 4.0188,0.74607 2.91462,17.1495 8.3758,33.87127 11.13126,51.05061 -0.50733,0.13927 -1.53192,0.40785 -2.04919,0.53717 3.25284,0.85548 6.53551,1.52197 9.85798,1.9895 4.15806,-0.16911 8.30617,-0.189 12.45428,-0.0696 4.05858,-0.40785 8.01769,-1.46229 11.9569,-2.44709 -1.11412,-0.42774 -2.25808,-0.80575 -3.41199,-1.13402 -1.54187,0.2288 -3.08373,0.45759 -4.64549,0.66649 -2.74551,0.36805 -5.5706,0.73611 -8.3758,0.54711 1.35286,-1.23349 3.06383,-1.93976 4.90412,-1.76071 0.33822,-1.3827 0.68638,-2.77535 1.07433,-4.14811 -3.45178,0.0497 -6.83394,-1.1937 -9.69882,-3.08373 1.43244,-4.11826 9.27108,-0.17905 9.99725,-4.67532 -5.20255,-0.93507 -10.32552,-2.77536 -15.00084,-5.26224 1.89997,-3.10362 6.82399,-2.41724 10.05693,-2.91462 1.68112,-2.79524 -2.15861,-4.5659 -2.93452,-6.98315 0.25864,-2.05914 1.20365,-4.18791 0.26858,-6.22714 -2.32771,-6.25699 -3.52141,-12.7726 -4.67532,-19.2981704 z"
     id="path3274-0"
     inkscape:export-filename="C:\ws\workspace\SilenceSign\res\drawable\girl.png"
     inkscape:export-xdpi="43.060478"
     inkscape:export-ydpi="43.060478" />
  <path
     style="fill:#5a1d1f"
     d="m 753.80694,39.295005 c -3.84968,1.24344 -8.05748,1.85023 -11.25063,4.55596 1.78061,2.68582 4.90412,3.67063 7.58995,5.14286 7.60984,3.50152 13.95635,9.46008 22.01383,11.99669 -0.40784,-1.32302 -0.81569,-2.64604 -1.1937,-3.979 -0.54087,-0.44678 5.428,4.62845 -1.6286,-1.33977 -5.77136,-4.88119 -11.77266,-9.67934 -15.53085,-16.37674 z"
     id="path3296-9"
     sodipodi:nodetypes="cccccsc"
     inkscape:export-filename="C:\ws\workspace\SilenceSign\res\drawable\girl.png"
     inkscape:export-xdpi="43.060478"
     inkscape:export-ydpi="43.060478" />
  <path
     style="fill:#662427"
     d="m 815.97886,42.259355 c -3.04394,-0.0796 -6.05803,-0.13926 -9.12186,-0.15916 -3.23294,0.49738 -8.15696,-0.189 -10.05693,2.91462 4.67532,2.48688 9.79829,4.32717 15.00084,5.26224 1.45233,-2.64604 3.65073,-4.95386 4.17795,-8.0177 z"
     id="path3300-4"
     inkscape:export-filename="C:\ws\workspace\SilenceSign\res\drawable\girl.png"
     inkscape:export-xdpi="43.060478"
     inkscape:export-ydpi="43.060478" />
  <path
     style="fill:#4e2021"
     d="m 742.55631,43.850965 c -1.37275,0.88532 -2.62614,1.94971 -3.79,3.10362 5.60045,4.54601 10.54436,9.81819 15.53801,15.01079 6.81404,6.12766 12.63333,13.3396 19.83533,19.02958 0.189,-0.29843 0.567,-0.89528 0.75601,-1.19371 0.10942,-6.35645 0.70627,-13.09091 -2.73557,-18.81073 -8.05748,-2.53661 -14.40399,-8.49517 -22.01383,-11.99669 -2.68583,-1.47223 -5.80934,-2.45704 -7.58995,-5.14286 z"
     id="path3302-8"
     inkscape:export-filename="C:\ws\workspace\SilenceSign\res\drawable\girl.png"
     inkscape:export-xdpi="43.060478"
     inkscape:export-ydpi="43.060478" />
  <path
     style="fill:#3f1113"
     d="m 738.76631,46.954585 c -1.91987,1.71097 -3.5612,3.73031 -4.66538,6.06798 1.64134,0.70627 3.40205,1.20365 4.88423,2.21829 0.2089,1.63139 0.23874,3.28268 0.26858,4.93396 0.72617,-0.93506 1.44239,-1.91986 2.55651,-2.41724 0.31832,-0.15916 0.97486,-0.49738 1.29318,-0.66648 3.21304,1.5717 6.34651,3.32246 9.22133,5.45123 0.49738,-0.13926 1.48218,-0.43769 1.97956,-0.57695 -4.99365,-5.1926 -9.93756,-10.46478 -15.53801,-15.01079 z"
     id="path3304-8"
     inkscape:export-filename="C:\ws\workspace\SilenceSign\res\drawable\girl.png"
     inkscape:export-xdpi="43.060478"
     inkscape:export-ydpi="43.060478" />
  <path
     style="fill:#643931"
     d="m 848.61663,53.609465 c -2.2183,-0.94501 -4.56591,-1.08428 -7.04284,-0.3979 l 0.0299,0.64659 c 1.39265,0.29842 2.79525,0.49737 4.21774,0.59685 0.69632,-0.2089 2.09892,-0.6267 2.79525,-0.84554 z"
     id="path3310-2"
     inkscape:export-filename="C:\ws\workspace\SilenceSign\res\drawable\girl.png"
     inkscape:export-xdpi="43.060478"
     inkscape:export-ydpi="43.060478" />
  <path
     style="fill:#2e1010"
     d="m 738.98516,55.240855 c -1.48218,-1.01464 -3.24289,-1.51202 -4.88423,-2.21829 -0.189,0.33821 -0.56701,1.0047 -0.75601,1.34291 -0.73611,3.10362 -2.11882,6.09782 -2.15861,9.35066 2.34761,4.57585 3.02405,9.70876 4.61565,14.54325 0.94501,-6.06798 2.25808,-12.06632 3.45178,-18.08457 -0.0298,-1.65128 -0.0597,-3.30257 -0.26858,-4.93396 z"
     id="path3312-4"
     inkscape:export-filename="C:\ws\workspace\SilenceSign\res\drawable\girl.png"
     inkscape:export-xdpi="43.060478"
     inkscape:export-ydpi="43.060478" />
  <path
     d="m 853.40138,55.141385 c -1.39265,-1.0246 -3.16331,-1.10418 -4.78475,-1.53192 -0.69633,0.21884 -2.09893,0.63664 -2.79525,0.84554 -5.12297,0.95496 -9.11192,4.60569 -13.99614,6.22714 -3.22299,1.23349 -6.46588,2.47693 -9.86793,3.1832 -3.93921,0.9848 -7.89832,2.03924 -11.9569,2.44709 -1.31307,0.38795 -2.64604,0.73611 -3.96906,1.08427 -3.53136,2.53662 -7.89832,0.3979 -11.81763,1.06439 -5.91877,0.5869 -10.96216,-2.5963 -16.29402,-4.46643 1.63139,5.10307 2.53661,10.43493 1.89997,15.82648 -1.58165,0.95496 -3.29262,0.57695 -4.92401,-0.0199 -0.18901,0.29843 -0.56701,0.89528 -0.75601,1.19371 4.81459,4.5659 -2.26803,8.98259 -6.27688,10.92236 -1.69108,3.76016 -0.82564,7.98785 0.27853,11.757945 3.26278,3.33242 7.25173,6.25698 9.70877,10.21609 -1.87013,1.6115 -4.1879,1.77066 -6.97321,0.45758 -7.33131,2.83504 -2.22824,11.67838 1.56176,15.37885 6.9585,3.77997 19.13477,13.49266 34.8572,21.31991 1.74619,7.1965 45.90323,-6.67981 50.15368,-2.73059 2.63609,-0.92511 -13.81657,-19.30554 -11.41922,-20.69819 5.07323,-5.06328 12.71291,-6.02819 19.328,-8.04753 0.67643,-0.65654 1.36281,-1.29318 2.07903,-1.89998 -0.34816,1.57171 -0.7958,3.12352 -1.20365,4.67533 -7.4842,9.49679 6.17587,19.36668 6.91726,17.00622 4.56284,-13.25448 2.83488,-35.11261 0.65968,-47.389795 -0.5869,-0.71622 -2.46786,-10.9079 -3.0846,-11.61418 -4.00356,9.99041 -1.85133,5.46696 -4.05469,0.42713 -1.32302,-0.35811 -2.67588,-0.63664 -4.05858,-0.78585 -6.11772,1.56176 -12.40454,2.52666 -17.92541,5.79939 -0.0199,-0.44763 -0.0597,-1.34291 -0.0796,-1.79055 -0.9848,-2.90467 -2.86488,-5.92871 -0.83559,-8.86323 1.10418,-6.16745 -5.9884,0.10943 -8.9627,-0.24868 -2.21829,-1.99945 -2.4073,-7.40095 0.52722,-8.62449 3.42194,-1.9895 7.06273,-3.72037 10.98204,-4.45648 2.8251,-0.71623 5.72977,-1.11413 8.49518,-0.13927 0.44763,0.0895 1.34291,0.26858 1.79055,0.35811 1.96439,-4.14486 -2.07191,-4.62259 -3.2031,-6.88367 l 4e-5,0 z"
     id="path3314-5"
     sodipodi:nodetypes="cccccccccccccccccccccccccccccccccccccc"
     style="fill:#f7ae8c;fill-opacity:1"
     inkscape:export-filename="C:\ws\workspace\SilenceSign\res\drawable\girl.png"
     inkscape:export-xdpi="43.060478"
     inkscape:export-ydpi="43.060478" />
  <path
     style="fill:#e29374"
     d="m 845.82138,54.455005 c -1.42249,-0.0995 -2.82509,-0.29843 -4.21774,-0.59685 -5.41145,0.38795 -10.54436,2.30782 -15.79664,3.54131 -4.91407,2.23819 -10.03704,3.88947 -15.37885,4.78475 1.14396,0.44764 2.30782,0.85549 3.47168,1.2136 1.56176,-0.2089 3.10362,-0.43769 4.64549,-0.66649 4.50622,0.0895 8.79359,-3.07378 13.27992,-2.04918 4.88422,-1.62145 8.87317,-5.27218 13.99614,-6.22714 z"
     id="path3316-5"
     inkscape:export-filename="C:\ws\workspace\SilenceSign\res\drawable\girl.png"
     inkscape:export-xdpi="43.060478"
     inkscape:export-ydpi="43.060478" />
  <path
     style="fill:#e89675"
     d="m 787.68815,64.392565 c -5.90882,-1.57171 -11.71816,-3.77011 -16.72176,-7.38105 0.37801,1.33296 0.78586,2.65598 1.1937,3.979 3.44184,5.71982 2.84499,12.45428 2.73557,18.81073 1.63139,0.59685 3.34236,0.97486 4.92401,0.0199 0.63664,-5.39155 -0.26858,-10.72341 -1.89997,-15.82648 5.33186,1.87013 10.37525,5.05333 16.29402,4.46643 3.91931,-0.66649 8.28627,1.47223 11.81763,-1.06439 -2.82509,-0.25863 -5.71981,-0.28847 -8.48522,-1.01464 -3.32247,-0.46753 -6.60514,-1.13402 -9.85798,-1.9895 z"
     id="path3320-1"
     inkscape:export-filename="C:\ws\workspace\SilenceSign\res\drawable\girl.png"
     inkscape:export-xdpi="43.060478"
     inkscape:export-ydpi="43.060478" />
  <path
     style="fill:#311111"
     d="m 752.32476,62.542325 c -2.87482,-2.12877 -6.00829,-3.87953 -9.22133,-5.45123 -0.31832,0.1691 -0.97486,0.50732 -1.29318,0.66648 0.96491,7.67948 1.91987,15.3689 2.22824,23.09811 -0.43769,2.45703 1.03454,2.46698 1.26334,0.19895 1.91986,-4.43659 0.76595,-10.70352 4.59574,-14.16525 1.44239,3.96906 0.89528,8.29622 1.49213,12.40454 1.51202,-3.76016 1.41255,-8.43548 4.36695,-11.42968 0.64659,2.96435 1.4225,5.9884 0.71622,9.02239 1.6115,1.01464 3.49158,1.50207 5.39155,1.42249 0.10943,2.61619 0.2089,5.23239 0.29843,7.85853 3.23294,-1.65129 3.59105,-6.85383 7.65958,-7.391 0.11937,2.8052 0.24869,5.6104 0.3979,8.40564 1.52197,-1.90992 3.03399,-3.88947 3.91932,-6.18734 -7.202,-5.68998 -13.02129,-12.90192 -19.83533,-19.02958 -0.49738,0.13926 -1.48218,0.43769 -1.97956,0.57695 z"
     id="path3322-7"
     inkscape:export-filename="C:\ws\workspace\SilenceSign\res\drawable\girl.png"
     inkscape:export-xdpi="43.060478"
     inkscape:export-ydpi="43.060478" />
  <path
     style="fill:#682427"
     d="m 741.81025,57.757575 c -1.11412,0.49738 -1.83034,1.48218 -2.55651,2.41724 -1.1937,6.01825 -2.50677,12.01659 -3.45178,18.08457 -1.5916,-4.83449 -2.26804,-9.9674 -4.61565,-14.54325 l -0.21884,0.93506 c 0.0298,3.1832 0.0895,6.3863 -0.0597,9.5695 0.74607,5.06328 1.85024,10.12657 3.88948,14.83174 0.189,-5.88893 7.28157,-3.72037 9.24123,-8.19675 -0.30837,-7.72921 -1.26333,-15.41863 -2.22824,-23.09811 z"
     id="path3324-1"
     inkscape:export-filename="C:\ws\workspace\SilenceSign\res\drawable\girl.png"
     inkscape:export-xdpi="43.060478"
     inkscape:export-ydpi="43.060478" />
  <path
     style="fill:#753b32"
     d="m 831.82524,60.682145 c -4.48633,-1.0246 -8.7737,2.13871 -13.27992,2.04918 1.15391,0.32827 2.29787,0.70628 3.41199,1.13402 3.40205,-0.70627 6.64494,-1.94971 9.86793,-3.1832 z"
     id="path3326-1"
     inkscape:export-filename="C:\ws\workspace\SilenceSign\res\drawable\girl.png"
     inkscape:export-xdpi="43.060478"
     inkscape:export-ydpi="43.060478" />
  <path
     style="fill:#af6557"
     d="m 854.81393,61.666945 c -2.76541,-0.97486 -5.67008,-0.57696 -8.49518,0.13927 2.83504,-0.0199 5.67008,-0.0696 8.49518,-0.13927 z"
     id="path3328-5"
     inkscape:export-filename="C:\ws\workspace\SilenceSign\res\drawable\girl.png"
     inkscape:export-xdpi="43.060478"
     inkscape:export-ydpi="43.060478" />
  <path
     style="fill:#833936"
     d="m 856.60448,62.025055 c -0.44764,-0.0895 -1.34292,-0.26858 -1.79055,-0.35811 -2.8251,0.0696 -5.66014,0.11937 -8.49518,0.13927 -3.91931,0.73611 -7.5601,2.46698 -10.98204,4.45648 2.39735,1.4026 4.9837,-0.65654 7.28157,-1.04449 5.51092,-2.28793 11.68832,-1.65129 16.90082,0.92512 -0.0199,-1.91987 -1.70103,-2.91462 -2.91462,-4.11827 z"
     id="path3330-2"
     inkscape:export-filename="C:\ws\workspace\SilenceSign\res\drawable\girl.png"
     inkscape:export-xdpi="43.060478"
     inkscape:export-ydpi="43.060478" />
  <path
     style="fill:#874b3e"
     d="m 810.42815,62.184215 c -1.84029,-0.17905 -3.55126,0.52722 -4.90412,1.76071 2.8052,0.189 5.63029,-0.17906 8.3758,-0.54711 -1.16386,-0.35811 -2.32772,-0.76596 -3.47168,-1.2136 z"
     id="path3332-7"
     inkscape:export-filename="C:\ws\workspace\SilenceSign\res\drawable\girl.png"
     inkscape:export-xdpi="43.060478"
     inkscape:export-ydpi="43.060478" />
  <path
     d="m 859.5191,66.143325 c -5.2125,-2.57641 -11.3899,-3.21305 -16.90082,-0.92512 -2.29787,0.38795 -4.88422,2.44709 -7.28157,1.04449 -3.73131,1.46258 -5.48904,7.44809 -0.52722,8.62449 2.62799,1.51246 9.31393,-3.40894 8.9627,0.24868 1.13402,-1.74081 1.78061,-3.99889 3.65074,-5.12296 2.60624,-1.57171 5.74966,-2.74551 8.84333,-1.83034 2.18845,1.89997 3.48163,4.53606 5.30202,6.73446 -0.59685,-2.94446 -1.27328,-5.87898 -2.04918,-8.7737 z"
     id="path3334-6"
     style="fill:#f7ae8c;fill-opacity:1"
     sodipodi:nodetypes="ccccccccc"
     inkscape:export-filename="C:\ws\workspace\SilenceSign\res\drawable\girl.png"
     inkscape:export-xdpi="43.060478"
     inkscape:export-ydpi="43.060478" />
  <path
     style="fill:#9f2427"
     d="m 730.96747,64.651195 c -1.46229,3.03399 -0.54711,6.41614 -0.0597,9.5695 0.14922,-3.1832 0.0895,-6.3863 0.0597,-9.5695 z"
     id="path3336-1"
     inkscape:export-filename="C:\ws\workspace\SilenceSign\res\drawable\girl.png"
     inkscape:export-xdpi="43.060478"
     inkscape:export-ydpi="43.060478" />
  <path
     style="fill:#a96853"
     d="m 810.00041,66.312435 c -4.14811,-0.11937 -8.29622,-0.0995 -12.45428,0.0696 2.76541,0.72617 5.66013,0.75601 8.48522,1.01464 1.32302,-0.34816 2.65599,-0.69632 3.96906,-1.08427 z"
     id="path3338-4"
     inkscape:export-filename="C:\ws\workspace\SilenceSign\res\drawable\girl.png"
     inkscape:export-xdpi="43.060478"
     inkscape:export-ydpi="43.060478" />
  <path
     style="fill:#5f2123"
     d="m 749.89757,66.889385 c -3.82979,3.46173 -2.67588,9.72866 -4.59574,14.16525 -0.2288,2.26803 -1.70103,2.25808 -1.26334,-0.19895 -1.95966,4.47638 -9.05223,2.30782 -9.24123,8.19675 1.42249,3.03399 2.56645,6.1774 4.06853,9.1716 5.86903,-3.90937 14.00609,-4.17796 18.75105,-9.64908 1.54186,-0.76596 3.13346,-1.43245 4.54601,-2.4073 -0.0895,-2.62614 -0.189,-5.24234 -0.29843,-7.85853 -1.89997,0.0796 -3.78005,-0.40785 -5.39155,-1.42249 0.70628,-3.03399 -0.0696,-6.05804 -0.71622,-9.02239 -2.9544,2.9942 -2.85493,7.66952 -4.36695,11.42968 -0.59685,-4.10832 -0.0497,-8.43548 -1.49213,-12.40454 z"
     id="path3340-2"
     inkscape:export-filename="C:\ws\workspace\SilenceSign\res\drawable\girl.png"
     inkscape:export-xdpi="43.060478"
     inkscape:export-ydpi="43.060478" />
  <path
     style="fill:#e28976;fill-opacity:1"
     d="m 853.94352,67.864245 c 0.77045,-0.006 1.53937,0.0945 2.31279,0.32329 2.18846,1.89997 3.50153,4.54104 5.32192,6.73944 0.68638,0.84553 1.38768,1.65626 2.11384,2.462 -2.59629,0.73612 -5.25725,1.4971 -7.98287,1.46726 -4.17795,0.43769 -7.53026,3.15833 -11.09147,5.14784 -0.9848,-2.90468 -2.87483,-5.94364 -0.84554,-8.87815 1.13402,-1.74082 1.78558,-3.9989 3.65571,-5.12297 1.95469,-1.17878 4.20422,-2.12099 6.51562,-2.13871 z"
     id="path3342-3"
     inkscape:export-filename="C:\ws\workspace\SilenceSign\res\drawable\girl.png"
     inkscape:export-xdpi="43.060478"
     inkscape:export-ydpi="43.060478" />
  <path
     style="fill:#a83332"
     d="m 866.67135,80.776105 c -0.23874,-1.33297 -0.44763,-2.67588 -0.83559,-3.979 -1.03454,1.09422 -2.12876,2.13871 -3.22299,3.19315 1.3827,0.14921 2.73556,0.42774 4.05858,0.78585 z"
     id="path3346-2"
     inkscape:export-filename="C:\ws\workspace\SilenceSign\res\drawable\girl.png"
     inkscape:export-xdpi="43.060478"
     inkscape:export-ydpi="43.060478" />
  <path
     style="fill:#2f201d"
     d="m 865.83576,76.797105 c -0.53716,0.14921 -1.61149,0.44764 -2.14866,0.59685 -2.5963,0.73611 -5.24233,1.49212 -7.96795,1.46228 -4.17795,0.43769 -7.55016,3.15336 -11.11137,5.14286 0.0199,0.44764 0.0597,1.34292 0.0796,1.79055 5.52087,-3.27273 11.80769,-4.23763 17.92541,-5.79939 1.09423,-1.05444 2.18845,-2.09893 3.22299,-3.19315 z"
     id="path3348-2"
     inkscape:export-filename="C:\ws\workspace\SilenceSign\res\drawable\girl.png"
     inkscape:export-xdpi="43.060478"
     inkscape:export-ydpi="43.060478" />
  <path
     d="m 822.6039,81.750965 c 0.36806,-2.52667 -2.63609,-3.81985 -4.61564,-4.56591 -2.30783,2.23819 -5.76956,2.11882 -8.5847,3.37221 -6.58525,2.01934 -12.10612,6.42608 -15.70712,12.23543 3.07378,0.16911 6.18735,-5.43134 8.40565,-0.90522 1.7806,-1.68113 4.00884,-2.74552 6.35645,-3.38216 0.29843,-0.19895 0.90523,-0.5869 1.20365,-0.78585 3.92927,-2.74551 8.68418,-3.86958 12.94171,-5.9685 z"
     id="path3350-1"
     style="fill:#f7ae8c;fill-opacity:1"
     inkscape:export-filename="C:\ws\workspace\SilenceSign\res\drawable\girl.png"
     inkscape:export-xdpi="43.060478"
     inkscape:export-ydpi="43.060478" />
  <path
     style="fill:#833937"
     d="m 817.98826,77.185055 c -12.03649,-0.46753 -24.13266,7.19205 -28.12161,18.75105 2.12877,0.35811 2.75546,-1.82039 3.82979,-3.14341 3.601,-5.80935 9.12187,-10.21609 15.70712,-12.23543 2.81514,-1.25339 6.27687,-1.13402 8.5847,-3.37221 z"
     id="path3352-6"
     inkscape:export-filename="C:\ws\workspace\SilenceSign\res\drawable\girl.png"
     inkscape:export-xdpi="43.060478"
     inkscape:export-ydpi="43.060478" />
  <path
     style="fill:#591c1e"
     d="m 769.82243,78.776655 c -4.06853,0.53717 -4.42664,5.73971 -7.65958,7.391 -1.41255,0.97485 -3.00415,1.64134 -4.54601,2.4073 -4.74496,5.47112 -12.88202,5.73971 -18.75105,9.64908 2.40729,4.665375 5.23239,9.111905 7.80879,13.697705 0.25864,-2.7654 3.35231,-3.06383 5.25228,-4.32716 4.58581,-2.94446 11.01189,-7.54021 16.21444,-3.91932 -1.10417,-3.770095 -1.96961,-7.997785 -0.27853,-11.757945 0.57696,-1.68113 1.53192,-3.1832 2.35756,-4.73502 -0.14921,-2.79524 -0.27853,-5.60044 -0.3979,-8.40564 z"
     id="path3354-8"
     inkscape:export-filename="C:\ws\workspace\SilenceSign\res\drawable\girl.png"
     inkscape:export-xdpi="43.060478"
     inkscape:export-ydpi="43.060478" />
  <path
     style="fill:#eb9f7d"
     d="m 767.86277,91.917315 c 4.00885,-1.93977 11.09147,-6.35646 6.27688,-10.92236 -0.88533,2.29787 -2.39735,4.27742 -3.91932,6.18734 -0.82564,1.55182 -1.7806,3.05389 -2.35756,4.73502 z"
     id="path3356-5"
     inkscape:export-filename="C:\ws\workspace\SilenceSign\res\drawable\girl.png"
     inkscape:export-xdpi="43.060478"
     inkscape:export-ydpi="43.060478" />
  <path
     d="m 809.65225,87.709515 c 4.03868,0.12932 7.94805,1.39763 11.83753,2.36254 1.55181,1.32301 1.01962,3.62089 2.16358,5.22244 -8.40564,1.34291 -13.95138,7.714285 -19.47224,13.553465 -1.88008,-1.16385 -3.63582,-2.55651 -5.0981,-4.22769 -0.43769,-0.91517 -0.89528,-1.83034 -1.34291,-2.73556 l -0.0746,-1.04449 c 0.19895,-3.481625 1.71097,-6.724505 4.42664,-8.952745 1.7806,-1.68113 4.01879,-2.74552 6.3664,-3.38216 0.29843,-0.19895 0.89528,-0.59685 1.19371,-0.7958 z"
     id="path3360-7"
     style="fill:#e28c77;fill-opacity:1"
     inkscape:export-filename="C:\ws\workspace\SilenceSign\res\drawable\girl.png"
     inkscape:export-xdpi="43.060478"
     inkscape:export-ydpi="43.060478" />
  <path
     style="fill:#231b18"
     d="m 829.68652,94.792145 c -1.50207,0.11937 -4.52611,0.378 -6.02819,0.50732 -8.40564,1.34291 -13.96629,7.699365 -19.48716,13.538555 -1.14396,1.32301 1.73087,1.20364 2.44709,1.77065 6.02818,-6.84388 13.28986,-14.185135 22.93895,-14.931195 l 0.12931,-0.88533 z"
     id="path3366-6"
     inkscape:export-filename="C:\ws\workspace\SilenceSign\res\drawable\girl.png"
     inkscape:export-xdpi="43.060478"
     inkscape:export-ydpi="43.060478" />
  <path
     style="fill:#4c1819"
     d="m 768.1413,103.67526 c -5.20255,-3.62089 -11.62863,0.97486 -16.21444,3.91932 -1.89997,1.26333 -4.99364,1.56176 -5.25228,4.32716 2.83504,4.2078 5.81929,8.33601 8.5648,12.61344 1.58166,1.79055 2.90468,3.78005 4.07848,5.85908 15.29662,1.86906 -1.70785,-1.85743 14.31446,16.26418 5.19944,3.08998 19.03387,-4.70436 17.61998,-6.19971 l -18.81368,-10.73095 c -3.79,-3.70047 -8.89307,-12.54381 -1.56176,-15.37885 2.34762,-1.15391 4.67533,-1.30312 6.97321,-0.45758 -2.45704,-3.95911 -6.44599,-6.88367 -9.70877,-10.21609 z"
     id="path3370-1"
     sodipodi:nodetypes="ccccccccccc"
     inkscape:export-filename="C:\ws\workspace\SilenceSign\res\drawable\girl.png"
     inkscape:export-xdpi="43.060478"
     inkscape:export-ydpi="43.060478" />
  <path
     d="m 851.24277,104.95849 c -2.49682,-1.0047 -1.0047,3.35231 0.0995,3.63084 1.62144,-0.69633 1.49212,-2.97431 -0.0995,-3.63084 z"
     id="path3374-8"
     style="fill:#da8565;fill-opacity:1"
     inkscape:export-filename="C:\ws\workspace\SilenceSign\res\drawable\girl.png"
     inkscape:export-xdpi="43.060478"
     inkscape:export-ydpi="43.060478" />
  <path
     style="fill:#8d4f42"
     d="m 777.85007,113.89135 c -2.29788,-0.84554 -4.62559,-0.69633 -6.97321,0.45758 2.78531,1.31308 5.10308,1.15392 6.97321,-0.45758 z"
     id="path3380-9"
     inkscape:export-filename="C:\ws\workspace\SilenceSign\res\drawable\girl.png"
     inkscape:export-xdpi="43.060478"
     inkscape:export-ydpi="43.060478" />
  <path
     style="fill:#cf364d"
     d="m 865.35828,119.57138 c -6.61509,2.01934 -14.25477,2.98425 -19.328,8.04753 2.11882,1.42249 4.50622,1.72092 7.1622,0.91517 1.22354,-1.46228 2.03924,-3.29263 3.63084,-4.42664 3.81984,0.57695 6.15751,-2.28793 8.53496,-4.53606 z"
     id="path3390-2"
     inkscape:export-filename="C:\ws\workspace\SilenceSign\res\drawable\girl.png"
     inkscape:export-xdpi="43.060478"
     inkscape:export-ydpi="43.060478" />
  <path
     style="fill:#ca5d5d"
     d="m 838.4375,131.66485 c -3.40109,0.84892 -6.9808,1.62291 -10.19898,3.00569 l -1.48651,0.96606 0.94501,0.0398 c 1.81045,0.0597 9.22547,0.56953 11.03592,0.62922 0.19895,-0.56701 -0.49439,-4.0837 -0.29544,-4.64076 z"
     id="path3456-7"
     sodipodi:nodetypes="cccccc"
     inkscape:export-filename="C:\ws\workspace\SilenceSign\res\drawable\girl.png"
     inkscape:export-xdpi="43.060478"
     inkscape:export-ydpi="43.060478" />
  <path
     style="fill:#2a0f10"
     d="m 875.53458,137.71563 c -0.22879,-0.56701 -0.48345,-4.15229 -0.71224,-4.7193 -0.43769,1.33297 -1.12805,5.1172 -1.59558,6.45016 -1.81408,3.91772 -2.67421,6.77385 -5.61039,9.02239 -5.72977,4.12822 -12.49407,6.50567 -19.40759,7.74911 7.06273,11.47942 21.65572,11.11137 33.35399,9.34071 5.82924,-4.10832 14.11551,-1.92982 20.9395,-3.28268 -4.92401,-3.12352 -9.89674,-6.16325 -14.71236,-9.47002 -3.47066,-2.38321 -5.65018,-5.92872 -8.06743,-9.1915 -3.2057,-3.37394 -4.66653,-4.21459 -4.1879,-5.89887 z"
     id="path3466-9"
     sodipodi:nodetypes="cccccccscc"
     inkscape:export-filename="C:\ws\workspace\SilenceSign\res\drawable\girl.png"
     inkscape:export-xdpi="43.060478"
     inkscape:export-ydpi="43.060478" />
  <path
     style="fill:#c1374b"
     d="m 867.43731,117.6714 c -2.53271,2.16973 -4.80582,4.96896 -8.16597,5.85354 -1.01729,0.36073 -2.18063,0.13764 -3.15966,0.26732 -1.49535,1.2185 -3.3467,0.25918 -4.54729,1.698 -2.36695,0.77838 -3.47172,3.58519 -5.53411,2.12865 -2.39427,1.39157 -4.7747,2.85932 -7.40095,3.78005 -7.46946,3.24857 -1.46433,4.62142 2.99022,6.3267 4.59915,1.18378 9.46868,0.16118 13.77951,-1.60859 2.17214,-0.92978 4.73276,-1.50857 6.24295,-3.47398 0.92976,-1.12574 1.97783,-2.19739 2.66843,-3.50785 0.59519,-1.29524 0.83021,-2.71295 0.98943,-4.09229 0.89177,-2.40538 1.56327,-4.8725 2.13744,-7.37155 z"
     id="path3388-5"
     sodipodi:nodetypes="cccccccccccc"
     inkscape:export-filename="C:\ws\workspace\SilenceSign\res\drawable\girl.png"
     inkscape:export-xdpi="43.060478"
     inkscape:export-ydpi="43.060478" />
  <path
     style="fill:#2b1010"
     d="m 775.03492,145.56421 c -0.35811,0.26858 -1.05443,0.82564 -1.4026,1.09423 8.74259,19.18112 15.82885,37.81942 15.16,60.56042 0.70628,-0.0199 2.11882,-0.0597 2.8251,-0.0895 8.48522,-8.45538 20.32275,-13.54851 26.64937,-24.10281 1.49212,-3.601 2.81514,-7.51037 2.31776,-11.46947 -1.05443,-3.42195 -2.67587,-6.64494 -3.98895,-9.97735 -2.12876,-2.79525 -4.23763,-5.63029 -6.11771,-8.6046 -3.91932,-1.88008 -7.391,-4.53606 -11.06163,-6.84388 -2.78307,-2.42459 -4.74791,-4.00892 -6.5988,-4.97239 -7.68735,-4.00162 -10.18941,2.70547 -17.78254,4.40538 z"
     id="path3486-4"
     sodipodi:nodetypes="cccccccccsc"
     inkscape:export-filename="C:\ws\workspace\SilenceSign\res\drawable\girl.png"
     inkscape:export-xdpi="43.060478"
     inkscape:export-ydpi="43.060478" />
  <path
     style="fill:#efba98"
     d="m 848.20878,156.21799 c -0.66648,0.0199 -1.34291,0.0895 -2.0094,0.21885 3.97901,6.10776 10.84279,8.59464 16.32386,12.83228 5.65019,-0.13927 11.87733,-2.77536 17.30866,-0.8157 0.80575,-0.81569 1.30313,-1.85023 1.73087,-2.89472 -11.69827,1.77066 -26.29126,2.13871 -33.35399,-9.34071 z"
     id="path3514-3"
     inkscape:export-filename="C:\ws\workspace\SilenceSign\res\drawable\girl.png"
     inkscape:export-xdpi="43.060478"
     inkscape:export-ydpi="43.060478" />
  <path
     style="fill:#f0b894"
     d="m 822.85259,177.18733 c 0.36805,-6.27687 -1.53192,-12.18569 -5.87898,-16.78144 l -0.37801,1.17381 c 1.31308,3.33241 2.93452,6.5554 3.98895,9.97735 0.49738,3.9591 -0.82564,7.86847 -2.31776,11.46947 -6.32662,10.5543 -18.16415,15.64743 -26.64937,24.10281 2.48687,0 4.94391,-0.14921 7.38105,-0.44764 -0.57696,-0.13926 -1.72092,-0.40785 -2.29788,-0.54711 4.69522,-3.51147 9.54961,-6.81404 13.93646,-10.73336 5.97845,-4.65543 9.7784,-11.15116 12.21554,-18.21389 z"
     id="path3518-1"
     inkscape:export-filename="C:\ws\workspace\SilenceSign\res\drawable\girl.png"
     inkscape:export-xdpi="43.060478"
     inkscape:export-ydpi="43.060478" />
  <path
     style="fill:#f09f7d"
     d="m 848.39376,156.0829 c -10.72671,2.09807 -23.98723,0.68993 -34.60335,-1.62562 1.15391,1.92982 2.33766,3.84969 3.1832,5.94861 1.65817,2.98501 6.24777,8.10489 5.05194,17.6512 -0.92124,7.35429 -11.30365,17.81147 -12.30626,17.72538 0.43686,0.33824 -0.30844,15.96707 24.81059,6.51255 12.88904,-4.85129 26.805,-8.63644 31.13672,-20.71089 1.03455,-0.68638 2.10888,-1.33296 3.06384,-2.10887 15.15926,-8.05573 16.93678,-13.17953 14.30692,-13.79218 -0.75762,-0.17649 -4.13974,0.5546 -5.04346,0.6426 -5.13904,0.50041 -13.38332,0.39742 -14.90442,-0.52511 -2.32628,-0.51781 -6.51969,-1.62602 -7.98571,-2.7999 -2.46685,-1.9753 -4.21427,-3.08673 -6.71006,-6.91777 l 5e-5,0 z"
     id="path3512-2"
     sodipodi:nodetypes="cccscsccsscscc"
     inkscape:export-filename="C:\ws\workspace\SilenceSign\res\drawable\girl.png"
     inkscape:export-xdpi="43.060478"
     inkscape:export-ydpi="43.060478" />
  <path
     style="fill:#9f5f64"
     d="m 919.41303,162.23623 c -5.07323,-0.96491 -10.28572,-0.88533 -15.35895,0.01 5.12297,0.13926 10.24593,0.45758 15.35895,-0.01 z"
     id="path3520-3"
     inkscape:export-filename="C:\ws\workspace\SilenceSign\res\drawable\girl.png"
     inkscape:export-xdpi="43.060478"
     inkscape:export-ydpi="43.060478" />
  <path
     style="fill:#fcf9f8"
     d="m 931.3202,167.38904 c -2.68583,-3.80989 -7.56011,-4.76486 -11.90717,-5.15281 -5.11302,0.46753 -10.23598,0.14921 -15.35895,0.01 -0.38795,0 -1.16386,0.0199 -1.55181,0.0298 -6.82399,1.35286 -15.11026,-0.82564 -20.9395,3.28268 -0.42774,1.04449 -0.92512,2.07903 -1.73087,2.89472 -3.63084,3.73032 -7.20199,7.56011 -11.10141,11.02184 -0.95496,0.77591 -2.02929,1.42249 -3.06384,2.10887 -6.46587,5.3816 -13.64797,9.83809 -21.26776,13.38935 0.64658,0.35811 1.93976,1.07433 2.58635,1.43244 9.65903,-4.49628 18.7212,-10.51452 29.17603,-13.09092 0.53717,-0.189 1.59161,-0.55706 2.12877,-0.73612 17.08982,-6.90357 35.29375,-10.38519 53.03016,-15.18984 z"
     id="path3524-3"
     inkscape:export-filename="C:\ws\workspace\SilenceSign\res\drawable\girl.png"
     inkscape:export-xdpi="43.060478"
     inkscape:export-ydpi="43.060478" />
  <path
     style="fill:#fefdfd"
     d="m 846.98524,196.40592 c -0.64659,-0.35811 -1.93977,-1.07433 -2.58635,-1.43244 -4.73502,2.01934 -9.55956,3.83973 -14.43384,5.51091 -9.97735,3.46174 -20.48191,5.15281 -30.96658,6.1973 -2.43714,0.29843 -4.89418,0.44764 -7.38105,0.44764 -0.70628,0.0298 -2.11882,0.0696 -2.8251,0.0895 -15.67997,7.8151 -30.71602,15.84977 -38.00174,32.79851 -7.09162,22.73343 62.49411,28.98355 96.19466,-43.61145 l 0,3e-5 z"
     id="path3548-1"
     sodipodi:nodetypes="ccccccccc"
     inkscape:export-filename="C:\ws\workspace\SilenceSign\res\drawable\girl.png"
     inkscape:export-xdpi="43.060478"
     inkscape:export-ydpi="43.060478" />
  <path
     style="fill:#f6ad8a"
     d="m 810.63705,195.40122 c -5.62049,1.45203 -9.35619,6.99199 -13.93646,10.73336 0.57696,0.13926 1.72092,0.40785 2.29788,0.54711 10.48467,-1.04449 20.98923,-2.73556 30.96658,-6.1973 -3.38092,-0.96115 -8.23032,3.0446 -11.51381,1.47749 -5.88313,-2.80782 -8.63984,-0.94434 -7.81419,-6.56066 z"
     id="path3550-1"
     sodipodi:nodetypes="ccccsc"
     inkscape:export-filename="C:\ws\workspace\SilenceSign\res\drawable\girl.png"
     inkscape:export-xdpi="43.060478"
     inkscape:export-ydpi="43.060478" />
  <path
     d="m 1019.0498,101.6727 c 105.4273,274.67374 -310.59605,241.32744 -309.0661,154.20611 12.95261,-27.10763 11.51823,-7.32469 87.75959,-17.35849 9.73879,-1.28168 22.48679,-19.23242 49.23697,-42.10943 9.65903,-4.49627 18.71624,-10.52944 29.17107,-13.10584 0.53716,-0.189 1.60155,-0.54214 2.13871,-0.72119 17.08982,-6.90357 48.8984,-13.5936 66.63481,-18.39825 40.16163,-10.40699 36.9549,-39.74561 74.12495,-62.51291 z m -128.35024,87.07861 c -0.097,0.55457 -0.11146,1.10744 -0.0746,1.66621 -0.0354,-0.56017 -0.0224,-1.11164 0.0746,-1.66621 z"
     id="path3444-3"
     style="fill:#8d3435;fill-opacity:1"
     sodipodi:nodetypes="ccsccccccsc"
     inkscape:export-filename="C:\ws\workspace\SilenceSign\res\drawable\girl.png"
     inkscape:export-xdpi="43.060478"
     inkscape:export-ydpi="43.060478" />
  <path
     style="fill:#321010"
     d="m 852.46606,33.923155 c -3.24284,-3.87374 -8.98925,-10.99494 -8.98925,-10.99494 -7.79267,-7.87294 -13.69622,-11.42813 -21.84336,-13.4430004 -2.69362,-0.66617 -7.34688,-2.01148 -11.09444,-2.65668 -4.74302,-0.81658 -15.93986,-1.36382 -19.11967,-0.13366 -20.11449,7.7816404 -4.54235,51.5346204 -4.54276,55.0778904 -3.65884,4.46997 35.37892,11.4477 54.79644,-8.61113 2.47693,-0.68638 7.93915,13.6102 10.15744,14.55521 1.62144,0.42775 0.27749,-13.64998 1.67015,-12.62539 6.92494,7.85312 9.94388,35.76801 12.71863,49.508505 2.47693,2.41724 4.75913,-12.304835 5.45546,-13.966065 0.189,-9.68887 -2.14866,-19.139 -4.51617,-28.45982 -3.17325,-10.20614 -8.65523,-21.03913 -14.69247,-28.25092 z"
     id="path3294-8"
     sodipodi:nodetypes="ccssscccccccs"
     inkscape:export-filename="C:\ws\workspace\SilenceSign\res\drawable\girl.png"
     inkscape:export-xdpi="43.060478"
     inkscape:export-ydpi="43.060478" />
  <path
     style="fill:#2a0e0f"
     d="m 778.60608,12.804785 c 2.09813,-3.6887604 -2.57208,-0.30044 -4.0188,-0.74607 -10.92236,4.88423 -20.18114,14.53821 -22.98269,25.03393 -7.30392,6.12006 -24.74652,18.6423 -18.40001,23.88464 -20.39764,27.23763 38.32761,110.305315 56.83873,80.890335 0.11596,-4.49879 -19.82294,-34.30585 -19.8076,-33.74726 0.15714,5.72796 12.98079,14.56292 11.76366,9.31666 -0.63574,-2.74035 -12.99961,-24.261975 -10.48919,-27.532025 0.49714,-0.64758 5.9351,-17.98073 6.26229,-17.36026 12.62176,23.93617 1.07012,-1.77605 9.91568,-8.15217 0.51727,-0.12932 1.54186,-0.3979 2.04919,-0.53717 -2.75546,-17.17934 -3.5671,-34.32379 -11.13126,-51.05061 z"
     id="path3280-7"
     sodipodi:nodetypes="cccccssssccc"
     inkscape:export-filename="C:\ws\workspace\SilenceSign\res\drawable\girl.png"
     inkscape:export-xdpi="43.060478"
     inkscape:export-ydpi="43.060478" />
</svg>
